<svg version="1.2" baseProfile="tiny-ps" xmlns="http://www.w3.org/2000/svg" viewBox="0 0 169 28" width="169" height="28">
	<title>Header</title>
	<style>
		tspan { white-space:pre }
		.shp0 { fill: #000000 } 
	</style>
	<g id="Header">
		<path id="logo" class="shp0" d="M12.04 26.35C15.96 26.35 19.36 24.82 22.06 22.15L24.17 12.79L11.93 12.79L11.3 15.61L20.3 15.61L19.09 20.81C17.48 22.22 15.21 23.52 12.24 23.52C6.88 23.52 3.44 20.08 3.44 15.04C3.44 7.93 8.72 2.81 14.47 2.81C17.83 2.81 20.89 4.26 22.25 6.9L25.19 5.56C23.35 2.35 19.83 -0.02 14.9 -0.02C6.68 -0.02 0 6.37 0 15.19C0 21.8 4.92 26.35 12.04 26.35ZM39.94 26.35C48.08 26.35 54.61 19.66 54.61 11.1C54.61 4.07 49.25 -0.02 42.56 -0.02C34.42 -0.02 27.89 6.67 27.89 15.19C27.89 22.26 33.25 26.35 39.94 26.35ZM40.14 23.52C35.25 23.52 31.33 20.51 31.33 15.04C31.33 7.97 36.38 2.81 42.37 2.81C47.22 2.81 51.17 5.87 51.17 11.3C51.17 18.37 46.04 23.52 40.14 23.52ZM71.08 25.89L71.08 7.13L78.05 7.13L78.05 0.41L56.18 0.41L56.18 7.13L63.18 7.13L63.18 25.89L71.08 25.89ZM106.02 25.89L106.02 0.41L98.12 0.41L98.12 9.42L88.77 9.42L88.77 0.41L80.87 0.41L80.87 25.89L88.77 25.89L88.77 16.15L98.12 16.15L98.12 25.89L106.02 25.89ZM136.62 25.89L126.99 0.41L117.06 0.41L107.43 25.89L116.39 25.89L117.33 22.91L126.72 22.91L127.66 25.89L136.62 25.89ZM124.61 16.19L119.44 16.19L122.02 7.97L124.61 16.19ZM169.01 25.89L169.01 0.41L158.1 0.41L153.52 12.63L148.94 0.41L138.03 0.41L138.03 25.89L145.93 25.89L145.93 10.57L151.76 25.89L155.28 25.89L161.11 10.57L161.11 25.89L169.01 25.89ZM12.04 26.35C15.96 26.35 19.36 24.82 22.06 22.15L24.17 12.79L11.93 12.79L11.3 15.61L20.3 15.61L19.09 20.81C17.48 22.22 15.21 23.52 12.24 23.52C6.88 23.52 3.44 20.08 3.44 15.04C3.44 7.93 8.72 2.81 14.47 2.81C17.83 2.81 20.89 4.26 22.25 6.9L25.19 5.56C23.35 2.35 19.83 -0.02 14.9 -0.02C6.68 -0.02 0 6.37 0 15.19C0 21.8 4.92 26.35 12.04 26.35ZM71.08 25.89L71.08 7.13L78.05 7.13L78.05 0.41L56.18 0.41L56.18 7.13L63.18 7.13L63.18 25.89L71.08 25.89ZM106.02 25.89L106.02 0.41L98.12 0.41L98.12 9.42L88.77 9.42L88.77 0.41L80.87 0.41L80.87 25.89L88.77 25.89L88.77 16.15L98.12 16.15L98.12 25.89L106.02 25.89ZM136.62 25.89L126.99 0.41L117.06 0.41L107.43 25.89L116.39 25.89L117.33 22.91L126.72 22.91L127.66 25.89L136.62 25.89ZM124.61 16.19L119.44 16.19L122.02 7.97L124.61 16.19ZM169.01 25.89L169.01 0.41L158.1 0.41L153.52 12.63L148.94 0.41L138.03 0.41L138.03 25.89L145.93 25.89L145.93 10.57L151.76 25.89L155.28 25.89L161.11 10.57L161.11 25.89L169.01 25.89ZM29.22 20.57C29.09 21.42 28.39 23.91 24.65 26.88C24.45 27.03 24.37 27.28 24.45 27.51C24.52 27.73 24.72 27.9 24.97 27.93C25 27.93 25.54 28 26.51 28C29.27 28 34.91 27.49 41.81 24.06" />
	</g>
</svg>